HIERARCHY
ROOT root
{
	OFFSET -0.077679 0.000000 0.863643
	CHANNELS 6 Xposition Yposition Zposition Xrotation Yrotation Zrotation
	JOINT spine1
	{
		OFFSET 0.084075 0.000000 0.098215
		CHANNELS 3 Xrotation Yrotation Zrotation
		JOINT spine2
		{
			OFFSET 0.004518 0.000000 0.238221
			CHANNELS 6 Xposition Yposition Zposition Xrotation Yrotation Zrotation
			JOINT chest
			{
				OFFSET -0.000153 0.000000 0.205591
				CHANNELS 6 Xposition Yposition Zposition Xrotation Yrotation Zrotation
				JOINT l_shoulder
				{
					OFFSET 0.011130 0.000000 0.203436
					CHANNELS 3 Xrotation Yrotation Zrotation
					JOINT l_arm1
					{
						OFFSET -0.023968 0.201341 -0.039879
						CHANNELS 6 Xposition Yposition Zposition Xrotation Yrotation Zrotation
						JOINT l_arm2
						{
							OFFSET 0.002834 0.255826 -0.019338
							CHANNELS 6 Xposition Yposition Zposition Xrotation Yrotation Zrotation
							JOINT l_arm2.001
							{
								OFFSET 0.000000 0.278303 0.000000
								CHANNELS 6 Xposition Yposition Zposition Xrotation Yrotation Zrotation
								JOINT l_arm2.002
								{
									OFFSET 0.000000 0.097545 0.027868
									CHANNELS 6 Xposition Yposition Zposition Xrotation Yrotation Zrotation
									JOINT l_arm2.003
									{
										OFFSET 0.000000 0.073227 -0.001151
										CHANNELS 6 Xposition Yposition Zposition Xrotation Yrotation Zrotation
										End Site
										{
											OFFSET 0.000000 0.069050 -0.006363
										}
									}
								}
								JOINT l_thumb1
								{
									OFFSET 0.036186 0.069959 -0.025989
									CHANNELS 6 Xposition Yposition Zposition Xrotation Yrotation Zrotation
									JOINT l_thumb2
									{
										OFFSET 0.020316 0.016822 -0.014415
										CHANNELS 6 Xposition Yposition Zposition Xrotation Yrotation Zrotation
										JOINT l_thumb3
										{
											OFFSET 0.007269 0.030947 -0.011068
											CHANNELS 6 Xposition Yposition Zposition Xrotation Yrotation Zrotation
											End Site
											{
												OFFSET 0.004416 0.030806 0.000000
											}
										}
									}
								}
							}
						}
					}
				}
				JOINT neck
				{
					OFFSET 0.011130 0.000000 0.203436
					CHANNELS 3 Xrotation Yrotation Zrotation
					JOINT Chest.002
					{
						OFFSET -0.034927 0.000000 0.167239
						CHANNELS 6 Xposition Yposition Zposition Xrotation Yrotation Zrotation
						End Site
						{
							OFFSET 0.000000 0.000000 0.197672
						}
					}
				}
				JOINT r_shoulder
				{
					OFFSET 0.011130 0.000000 0.203436
					CHANNELS 3 Xrotation Yrotation Zrotation
					JOINT r_arm1
					{
						OFFSET -0.023968 -0.201341 -0.039879
						CHANNELS 6 Xposition Yposition Zposition Xrotation Yrotation Zrotation
						JOINT r_arm2
						{
							OFFSET 0.002834 -0.255826 -0.019338
							CHANNELS 6 Xposition Yposition Zposition Xrotation Yrotation Zrotation
							JOINT r_arm2.001
							{
								OFFSET 0.000000 -0.278303 0.000000
								CHANNELS 6 Xposition Yposition Zposition Xrotation Yrotation Zrotation
								JOINT r_arm2.002
								{
									OFFSET 0.000873 -0.097759 0.028598
									CHANNELS 6 Xposition Yposition Zposition Xrotation Yrotation Zrotation
									JOINT r_arm2.003
									{
										OFFSET 0.000000 -0.073227 -0.001151
										CHANNELS 6 Xposition Yposition Zposition Xrotation Yrotation Zrotation
										End Site
										{
											OFFSET 0.000000 -0.069050 -0.006363
										}
									}
								}
								JOINT r_thumb1
								{
									OFFSET 0.036186 -0.069959 -0.025989
									CHANNELS 6 Xposition Yposition Zposition Xrotation Yrotation Zrotation
									JOINT r_thumb2
									{
										OFFSET 0.020316 -0.016822 -0.014415
										CHANNELS 6 Xposition Yposition Zposition Xrotation Yrotation Zrotation
										JOINT r_thumb3
										{
											OFFSET 0.007269 -0.030947 -0.011068
											CHANNELS 6 Xposition Yposition Zposition Xrotation Yrotation Zrotation
											End Site
											{
												OFFSET 0.004416 -0.030806 0.000000
											}
										}
									}
								}
							}
						}
					}
				}
			}
		}
	}
	JOINT l_hip
	{
		OFFSET 0.084075 0.000000 0.098215
		CHANNELS 3 Xrotation Yrotation Zrotation
		JOINT l_leg1
		{
			OFFSET -0.008190 0.093423 -0.082916
			CHANNELS 6 Xposition Yposition Zposition Xrotation Yrotation Zrotation
			JOINT l_leg2
			{
				OFFSET 0.010576 0.000000 -0.363962
				CHANNELS 6 Xposition Yposition Zposition Xrotation Yrotation Zrotation
				JOINT l_foot
				{
					OFFSET -0.010576 0.000000 -0.485475
					CHANNELS 6 Xposition Yposition Zposition Xrotation Yrotation Zrotation
					End Site
					{
						OFFSET 0.212586 -0.012401 -0.015962
					}
				}
			}
		}
	}
	JOINT r_hip
	{
		OFFSET 0.084075 0.000000 0.098215
		CHANNELS 3 Xrotation Yrotation Zrotation
		JOINT r_leg1
		{
			OFFSET -0.008190 -0.093423 -0.082916
			CHANNELS 6 Xposition Yposition Zposition Xrotation Yrotation Zrotation
			JOINT r_leg2
			{
				OFFSET 0.010576 0.000000 -0.363962
				CHANNELS 6 Xposition Yposition Zposition Xrotation Yrotation Zrotation
				JOINT r_foot
				{
					OFFSET -0.010576 0.000000 -0.485475
					CHANNELS 6 Xposition Yposition Zposition Xrotation Yrotation Zrotation
					End Site
					{
						OFFSET 0.212586 0.012401 -0.015962
					}
				}
			}
		}
	}
}
MOTION
Frames: 5
Frame Time: 0.041667
-0.077679 0.000000 0.863643 -0.000000 -0.000001 -0.000002 -0.000000 -0.000001 -0.000002 0.004518 0.000000 0.238221 0.000000 -0.000000 0.000000 -0.000153 0.000000 0.205591 -0.000000 0.000000 -0.000000 0.000001 0.000000 -0.000000 -0.023968 0.201341 -0.039879 0.000001 0.000000 0.000000 0.002834 0.255826 -0.019338 0.000000 -0.000000 -0.000000 -0.000000 0.278303 -0.000000 0.000000 -0.000000 -0.000000 -0.000000 0.097545 0.027868 0.000000 -0.000000 -0.000000 0.000000 0.073227 -0.001151 -0.000000 -0.000000 -0.000000 0.036186 0.069959 -0.025989 0.000001 -0.000001 -0.000003 0.020316 0.016822 -0.014415 -0.000002 -0.000001 -0.000002 0.007269 0.030947 -0.011068 -0.000002 -0.000000 0.000000 0.000000 -0.000000 -0.000000 -0.034927 -0.000000 0.167239 0.000000 -0.000000 -0.000000 -0.000000 0.000001 -0.000000 -0.023968 -0.201341 -0.039879 0.000000 0.000000 0.000000 0.002834 -0.255826 -0.019338 0.000000 0.000000 0.000000 -0.000000 -0.278303 0.000000 -0.000000 0.000001 -0.000001 0.000873 -0.097759 0.028598 -0.000000 0.000001 -0.000001 -0.000000 -0.073227 -0.001151 -0.000000 -0.000000 0.000000 0.036186 -0.069959 -0.025989 -0.000001 0.000002 -0.000000 0.020316 -0.016822 -0.014415 0.000001 0.000001 -0.000002 0.007269 -0.030947 -0.011068 0.000002 -0.000001 -0.000001 0.000002 -0.000001 -0.000001 -0.008190 0.093423 -0.082916 0.000002 0.000000 0.000000 0.010576 0.000000 -0.363962 -0.000000 -0.000000 0.000000 -0.010576 -0.000000 -0.485475 0.000001 -0.000000 0.000000 0.000001 -0.000001 -0.000002 -0.008190 -0.093423 -0.082916 0.000001 -0.000000 -0.000000 0.010576 0.000000 -0.363962 -0.000000 0.000000 -0.000000 -0.010576 0.000000 -0.485475 0.000000 -0.000000 -0.000000 
-0.077679 0.000000 0.863643 -0.000000 -0.000001 -0.000002 -0.000000 -0.000001 -0.000002 0.004518 0.000000 0.238221 0.000000 -0.000000 0.000000 -0.000153 0.000000 0.205591 -0.000000 0.000000 -0.000000 0.000001 0.000000 -0.000000 -0.023968 0.201341 -0.039879 0.000001 0.000000 0.000000 0.002834 0.255826 -0.019338 -0.000002 -0.000002 -89.999996 -0.000000 0.278303 -0.000000 -0.000000 -0.000000 -0.000000 -0.000000 0.097545 0.027868 0.000000 0.000000 0.000001 0.000000 0.073227 -0.001151 0.000000 -0.000000 0.000000 0.036186 0.069959 -0.025989 0.000001 -0.000003 -0.000005 0.020316 0.016822 -0.014415 0.000001 -0.000001 0.000002 0.007269 0.030947 -0.011068 0.000000 0.000000 -0.000001 0.000000 -0.000000 -0.000000 -0.034927 -0.000000 0.167239 0.000000 -0.000000 -0.000000 -0.000000 0.000001 -0.000000 -0.023968 -0.201341 -0.039879 0.000000 0.000000 0.000000 0.002834 -0.255826 -0.019338 0.000000 0.000000 0.000000 -0.000000 -0.278303 0.000000 -0.000000 0.000001 -0.000001 0.000873 -0.097759 0.028598 -0.000000 0.000001 -0.000001 -0.000000 -0.073227 -0.001151 -0.000000 -0.000000 0.000000 0.036186 -0.069959 -0.025989 -0.000001 0.000002 -0.000000 0.020316 -0.016822 -0.014415 0.000001 0.000001 -0.000002 0.007269 -0.030947 -0.011068 0.000002 -0.000001 -0.000001 0.000002 -0.000001 -0.000001 -0.008190 0.093423 -0.082916 0.000002 0.000000 0.000000 0.010576 0.000000 -0.363962 -0.000000 -0.000000 0.000000 -0.010576 -0.000000 -0.485475 0.000001 -0.000000 0.000000 0.000001 -0.000001 -0.000002 -0.008190 -0.093423 -0.082916 0.000001 -0.000000 -0.000000 0.010576 0.000000 -0.363962 -0.000000 0.000000 -0.000000 -0.010576 0.000000 -0.485475 0.000000 -0.000000 -0.000000 
-0.077679 0.000000 0.863643 -0.000000 -0.000001 -0.000002 -0.000000 -0.000001 -0.000002 0.004518 0.000000 0.238221 0.000000 -0.000000 0.000000 -0.000153 0.000000 0.205591 -0.000000 0.000000 -0.000000 0.000001 0.000000 -0.000000 -0.023968 0.201341 -0.039879 0.000001 0.000000 0.000000 0.002834 0.255826 -0.019338 -90.000003 0.000000 0.000000 -0.000000 0.278303 0.000000 0.000000 -0.000000 -0.000000 -0.000000 0.097545 0.027868 0.000000 0.000000 -0.000000 0.000000 0.073227 -0.001151 -0.000000 -0.000000 -0.000000 0.036186 0.069959 -0.025989 -0.000000 -0.000001 -0.000003 0.020316 0.016822 -0.014415 -0.000002 -0.000000 0.000000 0.007269 0.030947 -0.011068 -0.000000 -0.000000 0.000000 0.000000 -0.000000 -0.000000 -0.034927 -0.000000 0.167239 0.000000 -0.000000 -0.000000 -0.000000 0.000001 -0.000000 -0.023968 -0.201341 -0.039879 0.000000 0.000000 0.000000 0.002834 -0.255826 -0.019338 0.000000 0.000000 0.000000 -0.000000 -0.278303 0.000000 -0.000000 0.000001 -0.000001 0.000873 -0.097759 0.028598 -0.000000 0.000001 -0.000001 -0.000000 -0.073227 -0.001151 -0.000000 -0.000000 0.000000 0.036186 -0.069959 -0.025989 -0.000001 0.000002 -0.000000 0.020316 -0.016822 -0.014415 0.000001 0.000001 -0.000002 0.007269 -0.030947 -0.011068 0.000002 -0.000001 -0.000001 0.000002 -0.000001 -0.000001 -0.008190 0.093423 -0.082916 0.000002 0.000000 0.000000 0.010576 0.000000 -0.363962 -0.000000 -0.000000 0.000000 -0.010576 -0.000000 -0.485475 0.000001 -0.000000 0.000000 0.000001 -0.000001 -0.000002 -0.008190 -0.093423 -0.082916 0.000001 -0.000000 -0.000000 0.010576 0.000000 -0.363962 -0.000000 0.000000 -0.000000 -0.010576 0.000000 -0.485475 0.000000 -0.000000 -0.000000 
-0.077679 0.000000 0.863643 -0.000000 -0.000001 -0.000002 -0.000000 -0.000001 -0.000002 0.004518 0.000000 0.238221 -0.030150 -0.012490 44.999988 -0.000153 0.000000 0.205591 2.214061 0.915417 44.921792 0.000001 -0.000000 0.000001 -0.023968 0.201341 -0.039879 -0.000000 0.000000 0.000001 0.002834 0.255826 -0.019338 0.000000 0.000000 0.000000 -0.000000 0.278303 -0.000000 0.000000 -0.000000 -0.000001 -0.000000 0.097545 0.027868 -0.000000 0.000000 0.000000 0.000000 0.073227 -0.001151 0.000001 -0.000000 0.000000 0.036186 0.069959 -0.025989 0.000001 0.000000 -0.000003 0.020316 0.016822 -0.014415 -0.000002 0.000000 -0.000001 0.007269 0.030947 -0.011068 0.000000 0.000000 -0.000003 0.000000 -0.000001 -0.000001 -0.034927 -0.000000 0.167239 0.000000 -0.000001 -0.000001 -0.000000 0.000001 0.000000 -0.023968 -0.201341 -0.039879 -0.000000 -0.000003 0.000000 0.002834 -0.255826 -0.019338 -0.000000 -0.000002 0.000000 -0.000000 -0.278303 0.000000 0.000000 0.000001 0.000000 0.000873 -0.097759 0.028598 -0.000000 0.000000 -0.000001 -0.000000 -0.073227 -0.001151 0.000000 -0.000000 -0.000000 0.036186 -0.069959 -0.025989 -0.000004 0.000003 -0.000003 0.020316 -0.016822 -0.014415 0.000002 -0.000001 -0.000000 0.007269 -0.030947 -0.011068 -0.000001 -0.000004 -0.000000 0.000002 -0.000001 -0.000001 -0.008190 0.093423 -0.082916 0.000002 0.000000 0.000000 0.010576 0.000000 -0.363962 -0.000000 -0.000000 0.000000 -0.010576 -0.000000 -0.485475 0.000001 -0.000000 0.000000 0.000001 -0.000001 -0.000002 -0.008190 -0.093423 -0.082916 0.000001 -0.000000 -0.000000 0.010576 0.000000 -0.363962 -0.000000 0.000000 -0.000000 -0.010576 0.000000 -0.485475 0.000000 -0.000000 -0.000000 
-0.077679 0.000000 0.504572 -0.000004 24.557880 0.000005 0.118519 13.475526 -0.023688 0.004518 -0.000000 0.238221 0.005478 5.789144 -13.219766 -0.000153 -0.000000 0.205591 -1.648608 0.468499 -31.725901 24.986943 -5.529792 -18.278110 -0.023968 0.201341 -0.039879 12.933456 -19.149625 -39.643962 0.002834 0.255826 -0.019338 -17.461095 -14.265503 -95.465964 0.000000 0.278303 -0.000000 0.000000 -0.000000 -0.000002 0.000000 0.097545 0.027868 -0.000000 0.000004 0.000002 -0.000000 0.073227 -0.001151 0.000002 -0.000002 -0.000002 0.036186 0.069959 -0.025989 0.000006 0.000002 -0.000003 0.020316 0.016822 -0.014415 -0.000002 -0.000003 -0.000004 0.007269 0.030947 -0.011068 -0.000003 -0.000001 0.000001 -3.435330 16.849165 -0.215379 -0.034927 -0.000000 0.167239 0.000003 -0.000005 21.529057 9.911545 0.825897 -17.880906 -0.023968 -0.201341 -0.039879 4.527839 0.583851 -14.789675 0.002834 -0.255826 -0.019338 0.000001 0.000001 -0.000001 -0.000000 -0.278303 -0.000000 -0.000001 0.000001 -0.000002 0.000873 -0.097759 0.028598 -0.000000 0.000002 -0.000001 0.000000 -0.073227 -0.001151 -0.000001 0.000001 -0.000002 0.036186 -0.069959 -0.025989 -0.000001 -0.000002 0.000004 0.020316 -0.016822 -0.014415 -0.000004 -0.000003 -0.000000 0.007269 -0.030947 -0.011068 -0.000001 -0.000001 -0.000003 0.000004 0.000003 -0.000001 -0.008190 0.093423 -0.082916 2.386564 -119.090892 4.716712 0.010576 0.000000 -0.363962 -84.701893 88.831842 83.151768 -0.010576 -0.000000 -0.485475 3.096151 4.147245 3.390578 0.000001 -0.000002 -0.000002 -0.008190 -0.093423 -0.082916 0.761590 24.728565 -0.145750 0.010576 0.000000 -0.363962 -1.183803 34.751958 0.410172 -0.010576 0.000000 -0.485475 0.000000 0.000001 -0.000000 
